<?xml version="1.0" encoding="UTF-8"?>
<svg id="Layer_1" xmlns="http://www.w3.org/2000/svg" xmlns:xlink="http://www.w3.org/1999/xlink" viewBox="0 0 16 16">
  <defs>
    <style>
      .cls-1 {
        stroke: url(#linear-gradient);
        stroke-miterlimit: 10;
      }

      .cls-1, .cls-2 {
        fill: none;
      }

      .cls-3 {
        clip-path: url(#clippath);
      }
    </style>
    <clipPath id="clippath">
      <rect className="cls-2" width="16" height="16"/>
    </clipPath>
    <linearGradient id="linear-gradient" x1="0" y1="7.9" x2="15.8" y2="7.9" gradientUnits="userSpaceOnUse">
      <stop offset="0" stop-color="#5f57a5"/>
      <stop offset="1" stop-color="#8f5fa7"/>
    </linearGradient>
  </defs>
  <g className="cls-3">
    <path className="cls-1" d="M15.5,15.5l-4.3-4.3M6.9,13.3c-.8,0-1.7-.2-2.4-.5-.8-.3-1.5-.8-2.1-1.4-.6-.6-1.1-1.3-1.4-2.1-.3-.8-.5-1.6-.5-2.4s.2-1.7.5-2.4c.3-.8.8-1.5,1.4-2.1.6-.6,1.3-1.1,2.1-1.4.8-.3,1.6-.5,2.4-.5,1.7,0,3.3.7,4.5,1.9,1.2,1.2,1.9,2.8,1.9,4.5s-.7,3.3-1.9,4.5-2.8,1.9-4.5,1.9Z"/>
  </g>
</svg>